<mxfile host="app.diagrams.net" agent="Mozilla/5.0 (Windows NT 10.0; Win64; x64) AppleWebKit/537.36 (KHTML, like Gecko) Chrome/131.0.0.0 Safari/537.36" version="25.0.3">
  <diagram name="Page-1" id="YNq7k5LJAqvkkTREv0vf">
    <mxGraphModel dx="1687" dy="1978" grid="1" gridSize="10" guides="1" tooltips="1" connect="1" arrows="1" fold="1" page="1" pageScale="1" pageWidth="850" pageHeight="1100" math="0" shadow="0">
      <root>
        <mxCell id="0" />
        <mxCell id="1" parent="0" />
        <mxCell id="2HWY9vDRjP_LY5cu4pKA-1" value="" style="rounded=0;whiteSpace=wrap;html=1;" vertex="1" parent="1">
          <mxGeometry x="280" y="-40" width="40" height="40" as="geometry" />
        </mxCell>
        <mxCell id="2HWY9vDRjP_LY5cu4pKA-2" value="" style="endArrow=classic;html=1;rounded=0;" edge="1" parent="1">
          <mxGeometry width="50" height="50" relative="1" as="geometry">
            <mxPoint x="40" y="280" as="sourcePoint" />
            <mxPoint x="130" y="280" as="targetPoint" />
          </mxGeometry>
        </mxCell>
        <mxCell id="2HWY9vDRjP_LY5cu4pKA-3" value="i_col" style="text;html=1;align=center;verticalAlign=middle;whiteSpace=wrap;rounded=0;" vertex="1" parent="1">
          <mxGeometry x="40" y="240" width="60" height="30" as="geometry" />
        </mxCell>
        <mxCell id="2HWY9vDRjP_LY5cu4pKA-5" value="i_row" style="text;html=1;align=center;verticalAlign=middle;whiteSpace=wrap;rounded=0;" vertex="1" parent="1">
          <mxGeometry x="40" y="290" width="60" height="30" as="geometry" />
        </mxCell>
        <mxCell id="2HWY9vDRjP_LY5cu4pKA-6" value="" style="endArrow=classic;html=1;rounded=0;" edge="1" parent="1">
          <mxGeometry width="50" height="50" relative="1" as="geometry">
            <mxPoint x="40" y="320" as="sourcePoint" />
            <mxPoint x="130" y="320" as="targetPoint" />
          </mxGeometry>
        </mxCell>
        <mxCell id="2HWY9vDRjP_LY5cu4pKA-7" value="" style="rounded=0;whiteSpace=wrap;html=1;" vertex="1" parent="1">
          <mxGeometry x="360" y="-40" width="40" height="40" as="geometry" />
        </mxCell>
        <mxCell id="2HWY9vDRjP_LY5cu4pKA-8" value="" style="rounded=0;whiteSpace=wrap;html=1;" vertex="1" parent="1">
          <mxGeometry x="440" y="-40" width="40" height="40" as="geometry" />
        </mxCell>
        <mxCell id="2HWY9vDRjP_LY5cu4pKA-9" value="" style="rounded=0;whiteSpace=wrap;html=1;" vertex="1" parent="1">
          <mxGeometry x="280" width="40" height="40" as="geometry" />
        </mxCell>
        <mxCell id="2HWY9vDRjP_LY5cu4pKA-10" value="" style="rounded=0;whiteSpace=wrap;html=1;" vertex="1" parent="1">
          <mxGeometry x="360" width="40" height="40" as="geometry" />
        </mxCell>
        <mxCell id="2HWY9vDRjP_LY5cu4pKA-11" value="" style="rounded=0;whiteSpace=wrap;html=1;" vertex="1" parent="1">
          <mxGeometry x="440" width="40" height="40" as="geometry" />
        </mxCell>
        <mxCell id="2HWY9vDRjP_LY5cu4pKA-12" value="" style="rounded=0;whiteSpace=wrap;html=1;" vertex="1" parent="1">
          <mxGeometry x="280" y="40" width="40" height="40" as="geometry" />
        </mxCell>
        <mxCell id="2HWY9vDRjP_LY5cu4pKA-13" value="" style="rounded=0;whiteSpace=wrap;html=1;" vertex="1" parent="1">
          <mxGeometry x="360" y="40" width="40" height="40" as="geometry" />
        </mxCell>
        <mxCell id="2HWY9vDRjP_LY5cu4pKA-14" value="" style="rounded=0;whiteSpace=wrap;html=1;" vertex="1" parent="1">
          <mxGeometry x="440" y="40" width="40" height="40" as="geometry" />
        </mxCell>
        <mxCell id="2HWY9vDRjP_LY5cu4pKA-16" value="" style="endArrow=classic;html=1;rounded=0;entryX=0;entryY=0.5;entryDx=0;entryDy=0;" edge="1" parent="1">
          <mxGeometry width="50" height="50" relative="1" as="geometry">
            <mxPoint x="190" y="20" as="sourcePoint" />
            <mxPoint x="280" y="20" as="targetPoint" />
          </mxGeometry>
        </mxCell>
        <mxCell id="2HWY9vDRjP_LY5cu4pKA-17" value="data1" style="text;html=1;align=center;verticalAlign=middle;whiteSpace=wrap;rounded=0;" vertex="1" parent="1">
          <mxGeometry x="160" y="-50" width="60" height="20" as="geometry" />
        </mxCell>
        <mxCell id="2HWY9vDRjP_LY5cu4pKA-18" value="" style="endArrow=classic;html=1;rounded=0;" edge="1" parent="1">
          <mxGeometry width="50" height="50" relative="1" as="geometry">
            <mxPoint x="190" y="-20" as="sourcePoint" />
            <mxPoint x="279" y="-20" as="targetPoint" />
          </mxGeometry>
        </mxCell>
        <mxCell id="2HWY9vDRjP_LY5cu4pKA-19" value="data2" style="text;html=1;align=center;verticalAlign=middle;whiteSpace=wrap;rounded=0;" vertex="1" parent="1">
          <mxGeometry x="160" width="60" height="20" as="geometry" />
        </mxCell>
        <mxCell id="2HWY9vDRjP_LY5cu4pKA-20" value="" style="endArrow=classic;html=1;rounded=0;entryX=-0.019;entryY=0.912;entryDx=0;entryDy=0;entryPerimeter=0;" edge="1" parent="1">
          <mxGeometry width="50" height="50" relative="1" as="geometry">
            <mxPoint x="190" y="70" as="sourcePoint" />
            <mxPoint x="279.2399999999999" y="69.44000000000005" as="targetPoint" />
          </mxGeometry>
        </mxCell>
        <mxCell id="2HWY9vDRjP_LY5cu4pKA-21" value="data3" style="text;html=1;align=center;verticalAlign=middle;whiteSpace=wrap;rounded=0;" vertex="1" parent="1">
          <mxGeometry x="160" y="50" width="60" height="20" as="geometry" />
        </mxCell>
        <mxCell id="2HWY9vDRjP_LY5cu4pKA-22" value="Controller" style="rounded=0;whiteSpace=wrap;html=1;" vertex="1" parent="1">
          <mxGeometry x="130" y="240" width="210" height="110" as="geometry" />
        </mxCell>
        <mxCell id="2HWY9vDRjP_LY5cu4pKA-23" value="sum1" style="rounded=0;whiteSpace=wrap;html=1;" vertex="1" parent="1">
          <mxGeometry x="271.25" y="170" width="45" height="40" as="geometry" />
        </mxCell>
        <mxCell id="2HWY9vDRjP_LY5cu4pKA-24" value="sum2" style="rounded=0;whiteSpace=wrap;html=1;" vertex="1" parent="1">
          <mxGeometry x="356.25" y="170" width="45" height="40" as="geometry" />
        </mxCell>
        <mxCell id="2HWY9vDRjP_LY5cu4pKA-25" value="sum2" style="rounded=0;whiteSpace=wrap;html=1;" vertex="1" parent="1">
          <mxGeometry x="433.75" y="170" width="45" height="40" as="geometry" />
        </mxCell>
        <mxCell id="2HWY9vDRjP_LY5cu4pKA-30" value="Acc" style="rounded=0;whiteSpace=wrap;html=1;" vertex="1" parent="1">
          <mxGeometry x="600" y="100" width="120" height="60" as="geometry" />
        </mxCell>
        <mxCell id="2HWY9vDRjP_LY5cu4pKA-31" value="" style="endArrow=classic;html=1;rounded=0;exitX=1.021;exitY=0.188;exitDx=0;exitDy=0;exitPerimeter=0;" edge="1" parent="1" source="2HWY9vDRjP_LY5cu4pKA-22">
          <mxGeometry width="50" height="50" relative="1" as="geometry">
            <mxPoint x="350" y="300" as="sourcePoint" />
            <mxPoint x="400" y="261" as="targetPoint" />
          </mxGeometry>
        </mxCell>
        <mxCell id="2HWY9vDRjP_LY5cu4pKA-32" value="s_en" style="text;html=1;align=center;verticalAlign=middle;whiteSpace=wrap;rounded=0;" vertex="1" parent="1">
          <mxGeometry x="345" y="230" width="60" height="30" as="geometry" />
        </mxCell>
        <mxCell id="2HWY9vDRjP_LY5cu4pKA-33" value="" style="endArrow=classic;html=1;rounded=0;exitX=1;exitY=0.5;exitDx=0;exitDy=0;" edge="1" parent="1" source="2HWY9vDRjP_LY5cu4pKA-22">
          <mxGeometry width="50" height="50" relative="1" as="geometry">
            <mxPoint x="350" y="300" as="sourcePoint" />
            <mxPoint x="400" y="295" as="targetPoint" />
          </mxGeometry>
        </mxCell>
        <mxCell id="2HWY9vDRjP_LY5cu4pKA-34" value="acc_en" style="text;html=1;align=center;verticalAlign=middle;whiteSpace=wrap;rounded=0;" vertex="1" parent="1">
          <mxGeometry x="350" y="260" width="60" height="30" as="geometry" />
        </mxCell>
        <mxCell id="2HWY9vDRjP_LY5cu4pKA-35" value="" style="endArrow=classic;html=1;rounded=0;entryX=0;entryY=1;entryDx=0;entryDy=0;entryPerimeter=0;" edge="1" parent="1" target="2HWY9vDRjP_LY5cu4pKA-22">
          <mxGeometry width="50" height="50" relative="1" as="geometry">
            <mxPoint x="40" y="350" as="sourcePoint" />
            <mxPoint x="95" y="320" as="targetPoint" />
          </mxGeometry>
        </mxCell>
        <mxCell id="2HWY9vDRjP_LY5cu4pKA-39" value="delayed_i_row" style="text;html=1;align=center;verticalAlign=middle;whiteSpace=wrap;rounded=0;" vertex="1" parent="1">
          <mxGeometry x="470" y="290" width="60" height="30" as="geometry" />
        </mxCell>
      </root>
    </mxGraphModel>
  </diagram>
</mxfile>
